<svg xmlns="http://www.w3.org/2000/svg" width="960" height="540" viewBox="0 0 960 540" role="img" aria-labelledby="title desc">
  <title id="title">DelayLens Streamlit dashboard screenshot mockup</title>
  <desc id="desc">A DelayLens dashboard with KPI cards, a delay reason bar chart, and classification table.</desc>
  <rect width="960" height="540" fill="#f8fafc"/>
  <rect x="24" y="24" width="912" height="492" rx="8" fill="#ffffff" stroke="#cbd5e1"/>
  <rect x="24" y="24" width="912" height="58" rx="8" fill="#0f172a"/>
  <text x="52" y="61" font-family="Arial, sans-serif" font-size="26" font-weight="700" fill="#ffffff">DelayLens</text>
  <text x="184" y="61" font-family="Arial, sans-serif" font-size="14" fill="#cbd5e1">Neutral delay cause classification for linehaul reviews</text>

  <rect x="52" y="108" width="132" height="72" rx="8" fill="#e0f2fe" stroke="#7dd3fc"/>
  <text x="70" y="136" font-family="Arial, sans-serif" font-size="13" fill="#0369a1">Total trips</text>
  <text x="70" y="165" font-family="Arial, sans-serif" font-size="28" font-weight="700" fill="#0c4a6e">8</text>
  <rect x="200" y="108" width="132" height="72" rx="8" fill="#fef3c7" stroke="#facc15"/>
  <text x="218" y="136" font-family="Arial, sans-serif" font-size="13" fill="#92400e">Delayed</text>
  <text x="218" y="165" font-family="Arial, sans-serif" font-size="28" font-weight="700" fill="#78350f">7</text>
  <rect x="348" y="108" width="132" height="72" rx="8" fill="#fee2e2" stroke="#fca5a5"/>
  <text x="366" y="136" font-family="Arial, sans-serif" font-size="13" fill="#991b1b">Critical</text>
  <text x="366" y="165" font-family="Arial, sans-serif" font-size="28" font-weight="700" fill="#7f1d1d">4</text>
  <rect x="496" y="108" width="132" height="72" rx="8" fill="#f1f5f9" stroke="#cbd5e1"/>
  <text x="514" y="136" font-family="Arial, sans-serif" font-size="13" fill="#475569">Missing signal</text>
  <text x="514" y="165" font-family="Arial, sans-serif" font-size="28" font-weight="700" fill="#334155">1</text>
  <rect x="644" y="108" width="132" height="72" rx="8" fill="#ecfdf5" stroke="#86efac"/>
  <text x="662" y="136" font-family="Arial, sans-serif" font-size="13" fill="#166534">Baseline gaps</text>
  <text x="662" y="165" font-family="Arial, sans-serif" font-size="28" font-weight="700" fill="#14532d">1</text>
  <rect x="792" y="108" width="116" height="72" rx="8" fill="#eef2ff" stroke="#a5b4fc"/>
  <text x="810" y="136" font-family="Arial, sans-serif" font-size="13" fill="#3730a3">Avg delay</text>
  <text x="810" y="165" font-family="Arial, sans-serif" font-size="28" font-weight="700" fill="#312e81">53</text>

  <rect x="52" y="210" width="400" height="220" rx="8" fill="#ffffff" stroke="#cbd5e1"/>
  <text x="76" y="242" font-family="Arial, sans-serif" font-size="16" font-weight="700" fill="#0f172a">Delay reason mix</text>
  <rect x="86" y="282" width="250" height="18" rx="4" fill="#dc2626"/>
  <text x="348" y="297" font-family="Arial, sans-serif" font-size="12" fill="#475569">Late departure</text>
  <rect x="86" y="314" width="210" height="18" rx="4" fill="#2563eb"/>
  <text x="308" y="329" font-family="Arial, sans-serif" font-size="12" fill="#475569">Enroute delay</text>
  <rect x="86" y="346" width="170" height="18" rx="4" fill="#ca8a04"/>
  <text x="268" y="361" font-family="Arial, sans-serif" font-size="12" fill="#475569">Hub dwell</text>
  <rect x="86" y="378" width="128" height="18" rx="4" fill="#64748b"/>
  <text x="226" y="393" font-family="Arial, sans-serif" font-size="12" fill="#475569">Missing signal</text>

  <rect x="484" y="210" width="424" height="220" rx="8" fill="#ffffff" stroke="#cbd5e1"/>
  <text x="508" y="242" font-family="Arial, sans-serif" font-size="16" font-weight="700" fill="#0f172a">Classification table</text>
  <rect x="508" y="268" width="376" height="28" fill="#e2e8f0"/>
  <text x="524" y="287" font-family="Arial, sans-serif" font-size="12" font-weight="700" fill="#334155">Trip</text>
  <text x="640" y="287" font-family="Arial, sans-serif" font-size="12" font-weight="700" fill="#334155">Reason</text>
  <text x="794" y="287" font-family="Arial, sans-serif" font-size="12" font-weight="700" fill="#334155">Severity</text>
  <text x="524" y="322" font-family="Arial, sans-serif" font-size="12" fill="#334155">DL-LATE-DEP</text>
  <text x="640" y="322" font-family="Arial, sans-serif" font-size="12" fill="#334155">LATE DEPARTURE</text>
  <rect x="794" y="306" width="58" height="22" rx="4" fill="#dc2626"/>
  <text x="808" y="322" font-family="Arial, sans-serif" font-size="12" font-weight="700" fill="#ffffff">HIGH</text>
  <text x="524" y="356" font-family="Arial, sans-serif" font-size="12" fill="#334155">DL-HUB-DWELL</text>
  <text x="640" y="356" font-family="Arial, sans-serif" font-size="12" fill="#334155">HUB DWELL</text>
  <rect x="794" y="340" width="58" height="22" rx="4" fill="#dc2626"/>
  <text x="808" y="356" font-family="Arial, sans-serif" font-size="12" font-weight="700" fill="#ffffff">HIGH</text>
  <text x="524" y="390" font-family="Arial, sans-serif" font-size="12" fill="#334155">DL-DEST-DWELL</text>
  <text x="640" y="390" font-family="Arial, sans-serif" font-size="12" fill="#334155">DESTINATION DWELL</text>
  <rect x="794" y="374" width="72" height="22" rx="4" fill="#2563eb"/>
  <text x="806" y="390" font-family="Arial, sans-serif" font-size="12" font-weight="700" fill="#ffffff">MEDIUM</text>

  <rect x="52" y="456" width="856" height="32" rx="6" fill="#f1f5f9"/>
  <text x="72" y="477" font-family="Arial, sans-serif" font-size="13" fill="#475569">Exports: delay_classification_report.csv and critical_delays.csv</text>
</svg>

