<svg width="980" height="600" viewBox="0 0 980 600" fill="none" xmlns="http://www.w3.org/2000/svg" role="img" aria-labelledby="title desc">
  <title id="title">GeoReplay Streamlit app screenshot</title>
  <desc id="desc">A terminal-style product screenshot showing GeoReplay metrics, visit events, exceptions, and a simple map preview.</desc>
  <rect width="980" height="600" rx="12" fill="#f5f7fb"/>
  <rect x="32" y="28" width="916" height="544" rx="10" fill="#ffffff" stroke="#d8dee9"/>
  <rect x="32" y="28" width="916" height="48" rx="10" fill="#243447"/>
  <circle cx="58" cy="52" r="6" fill="#ff5f57"/>
  <circle cx="80" cy="52" r="6" fill="#ffbd2e"/>
  <circle cx="102" cy="52" r="6" fill="#28c840"/>
  <text x="128" y="58" fill="#dbe7f3" font-family="ui-monospace, SFMono-Regular, Menlo, Consolas, monospace" font-size="16">GeoReplay - local Streamlit control-tower app</text>

  <rect x="58" y="104" width="204" height="424" rx="8" fill="#eef2f7" stroke="#d8dee9"/>
  <text x="78" y="138" fill="#1f2937" font-family="Arial, sans-serif" font-size="20" font-weight="700">Inputs</text>
  <rect x="78" y="160" width="164" height="34" rx="6" fill="#ffffff" stroke="#c7d0dc"/>
  <text x="94" y="182" fill="#334155" font-family="Arial, sans-serif" font-size="13">gps_points.csv</text>
  <rect x="78" y="208" width="164" height="34" rx="6" fill="#ffffff" stroke="#c7d0dc"/>
  <text x="94" y="230" fill="#334155" font-family="Arial, sans-serif" font-size="13">geofences.csv</text>
  <rect x="78" y="256" width="164" height="34" rx="6" fill="#ffffff" stroke="#c7d0dc"/>
  <text x="94" y="278" fill="#334155" font-family="Arial, sans-serif" font-size="13">planned_stops.csv</text>
  <text x="78" y="330" fill="#475569" font-family="Arial, sans-serif" font-size="13">Long dwell threshold</text>
  <rect x="78" y="344" width="164" height="8" rx="4" fill="#cbd5e1"/>
  <rect x="78" y="344" width="82" height="8" rx="4" fill="#2563eb"/>
  <text x="78" y="382" fill="#475569" font-family="Arial, sans-serif" font-size="13">Reverse-geocode final</text>
  <text x="78" y="402" fill="#475569" font-family="Arial, sans-serif" font-size="13">events only</text>
  <rect x="78" y="438" width="164" height="42" rx="7" fill="#2563eb"/>
  <text x="102" y="464" fill="#ffffff" font-family="Arial, sans-serif" font-size="15" font-weight="700">Run GeoReplay</text>

  <text x="294" y="126" fill="#111827" font-family="Arial, sans-serif" font-size="30" font-weight="700">GeoReplay</text>
  <text x="294" y="152" fill="#475569" font-family="Arial, sans-serif" font-size="15">Reconstruct geofence visit events from GPS pings.</text>

  <rect x="294" y="178" width="138" height="74" rx="8" fill="#f8fafc" stroke="#d8dee9"/>
  <text x="314" y="207" fill="#64748b" font-family="Arial, sans-serif" font-size="13">GPS pings</text>
  <text x="314" y="236" fill="#111827" font-family="Arial, sans-serif" font-size="28" font-weight="700">15</text>
  <rect x="452" y="178" width="138" height="74" rx="8" fill="#f8fafc" stroke="#d8dee9"/>
  <text x="472" y="207" fill="#64748b" font-family="Arial, sans-serif" font-size="13">Geofences</text>
  <text x="472" y="236" fill="#111827" font-family="Arial, sans-serif" font-size="28" font-weight="700">3</text>
  <rect x="610" y="178" width="138" height="74" rx="8" fill="#f8fafc" stroke="#d8dee9"/>
  <text x="630" y="207" fill="#64748b" font-family="Arial, sans-serif" font-size="13">Visit events</text>
  <text x="630" y="236" fill="#111827" font-family="Arial, sans-serif" font-size="28" font-weight="700">3</text>
  <rect x="768" y="178" width="138" height="74" rx="8" fill="#f8fafc" stroke="#d8dee9"/>
  <text x="788" y="207" fill="#64748b" font-family="Arial, sans-serif" font-size="13">Exceptions</text>
  <text x="788" y="236" fill="#b91c1c" font-family="Arial, sans-serif" font-size="28" font-weight="700">3</text>

  <rect x="294" y="282" width="382" height="210" rx="8" fill="#ffffff" stroke="#d8dee9"/>
  <text x="314" y="314" fill="#111827" font-family="Arial, sans-serif" font-size="18" font-weight="700">Visit Events</text>
  <line x1="314" y1="336" x2="656" y2="336" stroke="#e5e7eb"/>
  <text x="314" y="362" fill="#475569" font-family="ui-monospace, SFMono-Regular, Menlo, Consolas, monospace" font-size="13">VEH-101  Jeddah DC     60.0 min</text>
  <text x="314" y="394" fill="#475569" font-family="ui-monospace, SFMono-Regular, Menlo, Consolas, monospace" font-size="13">VEH-101  Customer A    20.0 min</text>
  <text x="314" y="426" fill="#475569" font-family="ui-monospace, SFMono-Regular, Menlo, Consolas, monospace" font-size="13">VEH-202  Fuel Station  40.0 min</text>
  <rect x="314" y="448" width="150" height="24" rx="12" fill="#dcfce7"/>
  <text x="330" y="465" fill="#166534" font-family="Arial, sans-serif" font-size="12" font-weight="700">visit_events.csv</text>
  <rect x="482" y="448" width="142" height="24" rx="12" fill="#fee2e2"/>
  <text x="498" y="465" fill="#991b1b" font-family="Arial, sans-serif" font-size="12" font-weight="700">exceptions.csv</text>

  <rect x="704" y="282" width="202" height="210" rx="8" fill="#e8f4ee" stroke="#d8dee9"/>
  <path d="M735 465 C760 430 778 410 800 382 C826 348 854 320 890 304" stroke="#3b82f6" stroke-width="5" fill="none" stroke-linecap="round"/>
  <circle cx="756" cy="436" r="8" fill="#2563eb"/>
  <circle cx="800" cy="382" r="8" fill="#2563eb"/>
  <circle cx="854" cy="320" r="8" fill="#2563eb"/>
  <circle cx="760" cy="430" r="32" fill="#22c55e" fill-opacity="0.22" stroke="#16a34a" stroke-width="2"/>
  <circle cx="800" cy="382" r="28" fill="#f97316" fill-opacity="0.20" stroke="#ea580c" stroke-width="2"/>
  <circle cx="854" cy="320" r="30" fill="#eab308" fill-opacity="0.22" stroke="#ca8a04" stroke-width="2"/>
  <text x="724" y="314" fill="#111827" font-family="Arial, sans-serif" font-size="18" font-weight="700">Map</text>
  <text x="724" y="518" fill="#475569" font-family="Arial, sans-serif" font-size="13">pings + geofences + visits</text>
</svg>
