<svg xmlns="http://www.w3.org/2000/svg" width="1120" height="640" viewBox="0 0 1120 640" role="img" aria-labelledby="title desc">
  <title id="title">PODPulse Streamlit dashboard preview</title>
  <desc id="desc">Synthetic screenshot-style preview of PODPulse with KPI cards, risk chart, and POD aging table.</desc>
  <rect width="1120" height="640" fill="#f8fafc"/>
  <rect x="0" y="0" width="240" height="640" fill="#0f172a"/>
  <text x="28" y="52" fill="#f8fafc" font-family="Arial, sans-serif" font-size="28" font-weight="700">PODPulse</text>
  <text x="28" y="94" fill="#cbd5e1" font-family="Arial, sans-serif" font-size="14">Inputs</text>
  <rect x="28" y="116" width="184" height="40" rx="6" fill="#1e293b"/>
  <text x="44" y="141" fill="#e2e8f0" font-family="Arial, sans-serif" font-size="13">deliveries.csv</text>
  <rect x="28" y="168" width="184" height="40" rx="6" fill="#1e293b"/>
  <text x="44" y="193" fill="#e2e8f0" font-family="Arial, sans-serif" font-size="13">pod_status.csv</text>
  <rect x="28" y="220" width="184" height="40" rx="6" fill="#1e293b"/>
  <text x="44" y="245" fill="#e2e8f0" font-family="Arial, sans-serif" font-size="13">invoice_status.csv</text>
  <text x="28" y="306" fill="#cbd5e1" font-family="Arial, sans-serif" font-size="14">Settings</text>
  <rect x="28" y="328" width="184" height="8" rx="4" fill="#334155"/>
  <rect x="28" y="328" width="92" height="8" rx="4" fill="#22c55e"/>
  <rect x="28" y="368" width="184" height="8" rx="4" fill="#334155"/>
  <rect x="28" y="368" width="132" height="8" rx="4" fill="#f59e0b"/>
  <rect x="28" y="420" width="184" height="44" rx="6" fill="#22c55e"/>
  <text x="72" y="447" fill="#052e16" font-family="Arial, sans-serif" font-size="14" font-weight="700">Run PODPulse</text>
  <text x="280" y="58" fill="#0f172a" font-family="Arial, sans-serif" font-size="34" font-weight="700">PODPulse</text>
  <text x="280" y="88" fill="#475569" font-family="Arial, sans-serif" font-size="15">POD aging, missing documents, rejected PODs, approval pending, and invoice blockers.</text>
  <g>
    <rect x="280" y="124" width="140" height="82" rx="8" fill="#ffffff" stroke="#e2e8f0"/>
    <text x="300" y="154" fill="#64748b" font-family="Arial, sans-serif" font-size="13">Deliveries</text>
    <text x="300" y="188" fill="#0f172a" font-family="Arial, sans-serif" font-size="30" font-weight="700">9</text>
    <rect x="438" y="124" width="140" height="82" rx="8" fill="#ffffff" stroke="#e2e8f0"/>
    <text x="458" y="154" fill="#64748b" font-family="Arial, sans-serif" font-size="13">Missing PODs</text>
    <text x="458" y="188" fill="#dc2626" font-family="Arial, sans-serif" font-size="30" font-weight="700">2</text>
    <rect x="596" y="124" width="140" height="82" rx="8" fill="#ffffff" stroke="#e2e8f0"/>
    <text x="616" y="154" fill="#64748b" font-family="Arial, sans-serif" font-size="13">Late PODs</text>
    <text x="616" y="188" fill="#ca8a04" font-family="Arial, sans-serif" font-size="30" font-weight="700">1</text>
    <rect x="754" y="124" width="140" height="82" rx="8" fill="#ffffff" stroke="#e2e8f0"/>
    <text x="774" y="154" fill="#64748b" font-family="Arial, sans-serif" font-size="13">Rejected</text>
    <text x="774" y="188" fill="#dc2626" font-family="Arial, sans-serif" font-size="30" font-weight="700">1</text>
    <rect x="912" y="124" width="140" height="82" rx="8" fill="#ffffff" stroke="#e2e8f0"/>
    <text x="932" y="154" fill="#64748b" font-family="Arial, sans-serif" font-size="13">Blockers</text>
    <text x="932" y="188" fill="#991b1b" font-family="Arial, sans-serif" font-size="30" font-weight="700">3</text>
  </g>
  <rect x="280" y="238" width="462" height="218" rx="8" fill="#ffffff" stroke="#e2e8f0"/>
  <text x="304" y="272" fill="#0f172a" font-family="Arial, sans-serif" font-size="18" font-weight="700">POD gap distribution</text>
  <rect x="316" y="370" width="42" height="64" fill="#15803d"/>
  <rect x="384" y="332" width="42" height="102" fill="#dc2626"/>
  <rect x="452" y="384" width="42" height="50" fill="#ca8a04"/>
  <rect x="520" y="350" width="42" height="84" fill="#991b1b"/>
  <rect x="588" y="398" width="42" height="36" fill="#64748b"/>
  <line x1="304" y1="434" x2="706" y2="434" stroke="#cbd5e1"/>
  <rect x="770" y="238" width="282" height="218" rx="8" fill="#ffffff" stroke="#e2e8f0"/>
  <text x="794" y="272" fill="#0f172a" font-family="Arial, sans-serif" font-size="18" font-weight="700">Aging buckets</text>
  <circle cx="840" cy="346" r="68" fill="none" stroke="#15803d" stroke-width="28"/>
  <path d="M840 278 A68 68 0 0 1 908 346" fill="none" stroke="#dc2626" stroke-width="28"/>
  <path d="M908 346 A68 68 0 0 1 840 414" fill="none" stroke="#991b1b" stroke-width="28"/>
  <text x="940" y="326" fill="#475569" font-family="Arial, sans-serif" font-size="13">0-24H</text>
  <text x="940" y="352" fill="#475569" font-family="Arial, sans-serif" font-size="13">48-72H</text>
  <text x="940" y="378" fill="#475569" font-family="Arial, sans-serif" font-size="13">7D+</text>
  <rect x="280" y="488" width="772" height="92" rx="8" fill="#ffffff" stroke="#e2e8f0"/>
  <text x="304" y="520" fill="#0f172a" font-family="Arial, sans-serif" font-size="17" font-weight="700">POD aging table</text>
  <rect x="304" y="538" width="720" height="1" fill="#e2e8f0"/>
  <text x="304" y="562" fill="#64748b" font-family="Arial, sans-serif" font-size="12">trip_id</text>
  <text x="408" y="562" fill="#64748b" font-family="Arial, sans-serif" font-size="12">pod_status</text>
  <text x="560" y="562" fill="#64748b" font-family="Arial, sans-serif" font-size="12">aging_bucket</text>
  <text x="706" y="562" fill="#64748b" font-family="Arial, sans-serif" font-size="12">pod_gap_type</text>
  <text x="904" y="562" fill="#64748b" font-family="Arial, sans-serif" font-size="12">risk</text>
</svg>

