<svg xmlns="http://www.w3.org/2000/svg" width="920" height="560" viewBox="0 0 920 560" role="img" aria-labelledby="title desc">
  <title id="title">TowerBrief Streamlit screenshot</title>
  <desc id="desc">Synthetic screenshot of TowerBrief showing KPI cards, owner workload chart, and action table.</desc>
  <rect width="920" height="560" fill="#f8fafc"/>
  <rect x="28" y="28" width="864" height="504" rx="8" fill="#ffffff" stroke="#cbd5e1"/>
  <text x="56" y="74" font-family="Arial, sans-serif" font-size="30" font-weight="700" fill="#172033">TowerBrief</text>
  <text x="56" y="104" font-family="Arial, sans-serif" font-size="15" fill="#475569">Daily control-tower management brief from local product-output files</text>
  <g transform="translate(56 132)">
    <rect width="112" height="74" rx="8" fill="#eff6ff" stroke="#bfdbfe"/>
    <text x="14" y="26" font-family="Arial, sans-serif" font-size="13" fill="#475569">Trips</text>
    <text x="14" y="56" font-family="Arial, sans-serif" font-size="26" font-weight="700" fill="#1d4ed8">8</text>
  </g>
  <g transform="translate(184 132)">
    <rect width="112" height="74" rx="8" fill="#fef2f2" stroke="#fecaca"/>
    <text x="14" y="26" font-family="Arial, sans-serif" font-size="13" fill="#475569">Open</text>
    <text x="14" y="56" font-family="Arial, sans-serif" font-size="26" font-weight="700" fill="#b91c1c">9</text>
  </g>
  <g transform="translate(312 132)">
    <rect width="112" height="74" rx="8" fill="#fff7ed" stroke="#fed7aa"/>
    <text x="14" y="26" font-family="Arial, sans-serif" font-size="13" fill="#475569">Critical</text>
    <text x="14" y="56" font-family="Arial, sans-serif" font-size="26" font-weight="700" fill="#c2410c">3</text>
  </g>
  <g transform="translate(440 132)">
    <rect width="112" height="74" rx="8" fill="#f0fdf4" stroke="#bbf7d0"/>
    <text x="14" y="26" font-family="Arial, sans-serif" font-size="13" fill="#475569">Customers</text>
    <text x="14" y="56" font-family="Arial, sans-serif" font-size="26" font-weight="700" fill="#15803d">6</text>
  </g>
  <g transform="translate(568 132)">
    <rect width="112" height="74" rx="8" fill="#f5f3ff" stroke="#ddd6fe"/>
    <text x="14" y="26" font-family="Arial, sans-serif" font-size="13" fill="#475569">Carriers</text>
    <text x="14" y="56" font-family="Arial, sans-serif" font-size="26" font-weight="700" fill="#6d28d9">7</text>
  </g>
  <g transform="translate(696 132)">
    <rect width="140" height="74" rx="8" fill="#ecfeff" stroke="#a5f3fc"/>
    <text x="14" y="26" font-family="Arial, sans-serif" font-size="13" fill="#475569">Exposure</text>
    <text x="14" y="56" font-family="Arial, sans-serif" font-size="26" font-weight="700" fill="#0e7490">900</text>
  </g>
  <rect x="56" y="234" width="360" height="170" rx="8" fill="#ffffff" stroke="#cbd5e1"/>
  <text x="78" y="264" font-family="Arial, sans-serif" font-size="16" font-weight="700" fill="#172033">Owner workload</text>
  <rect x="82" y="330" width="56" height="42" fill="#b91c1c"/>
  <rect x="154" y="302" width="56" height="70" fill="#ea580c"/>
  <rect x="226" y="346" width="56" height="26" fill="#ca8a04"/>
  <rect x="298" y="318" width="56" height="54" fill="#2563eb"/>
  <line x1="78" y1="372" x2="374" y2="372" stroke="#94a3b8"/>
  <rect x="444" y="234" width="392" height="170" rx="8" fill="#ffffff" stroke="#cbd5e1"/>
  <text x="466" y="264" font-family="Arial, sans-serif" font-size="16" font-weight="700" fill="#172033">Brief sections</text>
  <text x="466" y="300" font-family="Arial, sans-serif" font-size="14" fill="#334155">Executive Snapshot</text>
  <text x="466" y="328" font-family="Arial, sans-serif" font-size="14" fill="#334155">Top Actions</text>
  <text x="466" y="356" font-family="Arial, sans-serif" font-size="14" fill="#334155">Owner Workload</text>
  <text x="466" y="384" font-family="Arial, sans-serif" font-size="14" fill="#334155">Source Coverage</text>
  <rect x="56" y="430" width="780" height="54" rx="8" fill="#ffffff" stroke="#cbd5e1"/>
  <rect x="74" y="448" width="42" height="20" rx="4" fill="#b91c1c"/>
  <text x="83" y="463" font-family="Arial, sans-serif" font-size="12" font-weight="700" fill="#ffffff">P1</text>
  <text x="134" y="463" font-family="Arial, sans-serif" font-size="13" fill="#172033">CRITICAL BanWindow conflict | owner: Control Tower Manager | carrier: City Window Movers</text>
</svg>
