<svg xmlns="http://www.w3.org/2000/svg" width="1200" height="720" viewBox="0 0 1200 720" role="img" aria-labelledby="title desc">
  <title id="title">UpdatePulse Streamlit screenshot mock</title>
  <desc id="desc">A dashboard showing update discipline KPIs, a bar chart, and a review table.</desc>
  <rect width="1200" height="720" fill="#f8fafc"/>
  <rect x="0" y="0" width="260" height="720" fill="#111827"/>
  <text x="32" y="58" font-family="Arial, sans-serif" font-size="25" font-weight="700" fill="#f9fafb">UpdatePulse</text>
  <text x="32" y="98" font-family="Arial, sans-serif" font-size="14" fill="#cbd5e1">Inputs</text>
  <rect x="32" y="124" width="196" height="38" rx="7" fill="#1f2937" stroke="#475569"/>
  <text x="48" y="148" font-family="Arial, sans-serif" font-size="13" fill="#e5e7eb">trips.csv</text>
  <rect x="32" y="176" width="196" height="38" rx="7" fill="#1f2937" stroke="#475569"/>
  <text x="48" y="200" font-family="Arial, sans-serif" font-size="13" fill="#e5e7eb">tms_updates.csv</text>
  <rect x="32" y="228" width="196" height="38" rx="7" fill="#1f2937" stroke="#475569"/>
  <text x="48" y="252" font-family="Arial, sans-serif" font-size="13" fill="#e5e7eb">visit_events.csv</text>
  <rect x="32" y="310" width="196" height="42" rx="7" fill="#ef4444"/>
  <text x="75" y="337" font-family="Arial, sans-serif" font-size="14" font-weight="700" fill="#ffffff">Run UpdatePulse</text>
  <text x="306" y="64" font-family="Arial, sans-serif" font-size="34" font-weight="700" fill="#0f172a">UpdatePulse</text>
  <text x="306" y="94" font-family="Arial, sans-serif" font-size="16" fill="#475569">Review update timing against planned and actual event evidence.</text>
  <g transform="translate(306 130)">
    <rect width="138" height="84" rx="8" fill="#ffffff" stroke="#e2e8f0"/>
    <text x="18" y="31" font-family="Arial, sans-serif" font-size="13" fill="#64748b">Milestones</text>
    <text x="18" y="62" font-family="Arial, sans-serif" font-size="28" font-weight="700" fill="#0f172a">10</text>
  </g>
  <g transform="translate(464 130)">
    <rect width="138" height="84" rx="8" fill="#ffffff" stroke="#e2e8f0"/>
    <text x="18" y="31" font-family="Arial, sans-serif" font-size="13" fill="#64748b">Update gaps</text>
    <text x="18" y="62" font-family="Arial, sans-serif" font-size="28" font-weight="700" fill="#ca8a04">1</text>
  </g>
  <g transform="translate(622 130)">
    <rect width="138" height="84" rx="8" fill="#ffffff" stroke="#e2e8f0"/>
    <text x="18" y="31" font-family="Arial, sans-serif" font-size="13" fill="#64748b">Late updates</text>
    <text x="18" y="62" font-family="Arial, sans-serif" font-size="28" font-weight="700" fill="#dc2626">3</text>
  </g>
  <g transform="translate(780 130)">
    <rect width="164" height="84" rx="8" fill="#ffffff" stroke="#e2e8f0"/>
    <text x="18" y="31" font-family="Arial, sans-serif" font-size="13" fill="#64748b">Sequence issues</text>
    <text x="18" y="62" font-family="Arial, sans-serif" font-size="28" font-weight="700" fill="#dc2626">2</text>
  </g>
  <rect x="306" y="250" width="838" height="190" rx="8" fill="#ffffff" stroke="#e2e8f0"/>
  <text x="330" y="284" font-family="Arial, sans-serif" font-size="16" font-weight="700" fill="#0f172a">Milestones by update status</text>
  <rect x="360" y="365" width="120" height="40" fill="#15803d"/>
  <rect x="520" y="315" width="120" height="90" fill="#dc2626"/>
  <rect x="680" y="385" width="120" height="20" fill="#ca8a04"/>
  <line x1="330" y1="405" x2="1110" y2="405" stroke="#cbd5e1"/>
  <text x="381" y="426" font-family="Arial, sans-serif" font-size="12" fill="#475569">OK</text>
  <text x="538" y="426" font-family="Arial, sans-serif" font-size="12" fill="#475569">NEEDS REVIEW</text>
  <text x="695" y="426" font-family="Arial, sans-serif" font-size="12" fill="#475569">UPDATE GAP</text>
  <rect x="306" y="472" width="838" height="196" rx="8" fill="#ffffff" stroke="#e2e8f0"/>
  <text x="330" y="506" font-family="Arial, sans-serif" font-size="16" font-weight="700" fill="#0f172a">Update discipline report</text>
  <rect x="330" y="526" width="790" height="34" fill="#f1f5f9"/>
  <text x="348" y="548" font-family="Arial, sans-serif" font-size="12" font-weight="700" fill="#334155">Trip</text>
  <text x="458" y="548" font-family="Arial, sans-serif" font-size="12" font-weight="700" fill="#334155">Milestone</text>
  <text x="646" y="548" font-family="Arial, sans-serif" font-size="12" font-weight="700" fill="#334155">Status</text>
  <text x="792" y="548" font-family="Arial, sans-serif" font-size="12" font-weight="700" fill="#334155">Exception</text>
  <text x="348" y="590" font-family="Arial, sans-serif" font-size="12" fill="#0f172a">UP-1002</text>
  <text x="458" y="590" font-family="Arial, sans-serif" font-size="12" fill="#0f172a">ORIGIN DEPARTURE</text>
  <rect x="646" y="570" width="110" height="26" rx="5" fill="#dc2626"/>
  <text x="662" y="588" font-family="Arial, sans-serif" font-size="11" font-weight="700" fill="#ffffff">NEEDS REVIEW</text>
  <text x="792" y="590" font-family="Arial, sans-serif" font-size="12" fill="#0f172a">late update</text>
  <text x="348" y="632" font-family="Arial, sans-serif" font-size="12" fill="#0f172a">UP-1003</text>
  <text x="458" y="632" font-family="Arial, sans-serif" font-size="12" fill="#0f172a">DESTINATION ARRIVAL</text>
  <rect x="646" y="612" width="102" height="26" rx="5" fill="#ca8a04"/>
  <text x="661" y="630" font-family="Arial, sans-serif" font-size="11" font-weight="700" fill="#ffffff">UPDATE GAP</text>
  <text x="792" y="632" font-family="Arial, sans-serif" font-size="12" fill="#0f172a">missing update</text>
</svg>
